<svg xmlns="http://www.w3.org/2000/svg" xmlns:xlink="http://www.w3.org/1999/xlink" style="enable-background:new 0 0 32 32;" version="1.1" xml:space="preserve" width="32" height="32"><rect id="backgroundrect" width="100%" height="100%" x="0" y="0" fill="none" stroke="none"/><g class="currentLayer" style=""><title>Layer 1</title><path d="M8,17c2.8,0,5-2.2,5-5v-2h1c0.6,0,1-0.4,1-1V6.5C15,4,13,2,10.5,2C8.8,2,7.4,2.9,6.6,4.3C6.3,4.1,5.9,4,5.5,4  C4.1,4,3,5.1,3,6.5V12C3,14.8,5.2,17,8,17z" id="svg_1" class="" stroke="#ffffff" stroke-opacity="1" fill="#ffffff" fill-opacity="1"/><path d="M30,19L30,19H17.1H17c-0.6,0-1,0.4-1,1s0.4,1,1,1h0.8c0,0.1-0.1,0.2-0.1,0.4l-0.5,2.1c-0.3-1.4-1.3-2.6-2.6-3.3L13,19.3V19  c0-0.4-0.2-0.7-0.5-0.9c-0.3-0.2-0.7-0.2-1,0L8,20.3l-3.5-2.2C4.3,18,4.1,18,3.8,18c-0.1,0-0.1,0-0.2,0c-0.2,0.1-0.4,0.2-0.5,0.4  c0,0,0,0,0,0C3,18.6,3,18.8,3,19v5c0,0.4,0.2,0.7,0.5,0.9c0.3,0.2,0.7,0.2,1,0L8,22.7l3.5,2.2C11.6,25,11.8,25,12,25  c0.1,0,0.1,0,0.2,0s0.1,0,0.2,0c0.2-0.1,0.4-0.2,0.5-0.4c0,0,0,0,0,0C13,24.4,13,24.2,13,24v-2.4l0.7,0.4c0.9,0.4,1.5,1.3,1.6,2.2  l0.7,5c0.1,0.5,0.5,0.8,1,0.9c0.5,0,0.9-0.3,1-0.8l1.7-7.4c0.1-0.5,0.5-0.8,1-0.8h2.5l-2.8,2.2C20.1,23.4,20,23.7,20,24v6  c0,0.6,0.4,1,1,1s1-0.4,1-1v-5.5l4.4-3.5H30c0.6,0,1-0.4,1-1S30.6,19,30,19z" id="svg_2" class="" fill="#ffffff" fill-opacity="1"/><path d="M25.8,13.5c0.1-0.3,0.2-0.6,0.2-1c0-1.4-1.1-2.5-2.5-2.5S21,11.1,21,12.5c0,0.3,0.1,0.7,0.2,1c-1.9,0.8-3.3,2.5-3.9,4.5  h12.4C29.1,15.9,27.7,14.2,25.8,13.5z M23.5,14c-0.8,0-1.5-0.7-1.5-1.5s0.7-1.5,1.5-1.5s1.5,0.7,1.5,1.5S24.3,14,23.5,14z" id="svg_3" class="" fill="#ffffff" fill-opacity="1"/></g></svg>